# xmcd CD database file
#
# Track frame offsets:
#	150
#	17505
#	36948
#	53083
#	70408
#	89157
#	104701
#	118675
#	135643
#	150983
#	171320
#
# Disc length: 2556 seconds
#
# Revision: 0
# Processed by: cddbd v1.5.2PL0 Copyright (c) Steve Scherf et al.
# Submitted via: CDex 1.51
#
DISCID=9709fa0b
DTITLE=Garnett Hundley and Beverly Dougherty - Live Flat Out
DYEAR=2002
DGENRE=New Age
TTITLE0=Awake and Aware
TTITLE1=I Hear a Call
TTITLE2=Live Flat Out
TTITLE3=Co-Creator
TTITLE4=Life Uncommon
TTITLE5=Days Pass
TTITLE6=She's Our Mother
TTITLE7=I Dream of a Place
TTITLE8=Makes Me Kinder
TTITLE9=Born Innocent
TTITLE10=Testify to Love
EXTD=YEAR: 2002
EXTT0=
EXTT1=
EXTT2=
EXTT3=
EXTT4=
EXTT5=
EXTT6=
EXTT7=
EXTT8=
EXTT9=
EXTT10=
PLAYORDER=
